<svg width="18" height="18" viewBox="0 0 18 18" fill="none" xmlns="http://www.w3.org/2000/svg">
<path d="M14.3333 17C15.8061 17 17 15.8061 17 14.3333C17 12.8606 15.8061 11.6667 14.3333 11.6667C12.8605 11.6667 11.6666 12.8606 11.6666 14.3333C11.6666 15.8061 12.8605 17 14.3333 17Z" stroke="#798692" stroke-width="1.5" stroke-linecap="round" stroke-linejoin="round"/>
<path d="M3.66667 6.33333C5.13943 6.33333 6.33333 5.13943 6.33333 3.66667C6.33333 2.19391 5.13943 1 3.66667 1C2.19391 1 1 2.19391 1 3.66667C1 5.13943 2.19391 6.33333 3.66667 6.33333Z" stroke="#798692" stroke-width="1.5" stroke-linecap="round" stroke-linejoin="round"/>
<path d="M9.88892 3.66667H12.5556C13.0271 3.66667 13.4793 3.85397 13.8127 4.18737C14.1461 4.52077 14.3334 4.97295 14.3334 5.44445V11.6667" stroke="#798692" stroke-width="1.5" stroke-linecap="round" stroke-linejoin="round"/>
<path d="M3.66663 6.33333V17" stroke="#798692" stroke-width="1.5" stroke-linecap="round" stroke-linejoin="round"/>
</svg>
